<svg xmlns="http://www.w3.org/2000/svg" width="51" height="80" fill="none">
    <path fill="#2BDEFD"
        d="M44.645 5.137C40.538 1.677 34.092 0 25.4 0c-3.87.006-7.723.412-11.51 1.212a21.481 21.481 0 0 0-7.916 3.834 14.896 14.896 0 0 0-4.58 5.785 17.426 17.426 0 0 0-1.393 7.008v2.611a1.03 1.03 0 0 0 1.018 1.024h10.46a.957.957 0 0 0 1.025-.89v-.037a11.12 11.12 0 0 1 2.61-6.451c1.872-2.054 5.15-3.09 10.098-3.09 2.102-.06 4.198.23 6.203.86a11.056 11.056 0 0 1 3.913 2.151 7.367 7.367 0 0 1 2.06 2.89c.43.969.654 2.023.66 3.083v2.81a6.924 6.924 0 0 1-.66 3.175 8.841 8.841 0 0 1-1.52 2.35 14.434 14.434 0 0 1-1.872 1.502c-.485.31-.982.588-1.497.836-.37.188-1.405.466-2.986 1.127-1.684.557-3.465 1.211-5.61 1.95-2.15.848-4.397 1.503-6.662 2.338-2.266.836-4.301 1.406-6.058 2.054a15.52 15.52 0 0 0-8.208 6.548A19.609 19.609 0 0 0 .08 54.978v7.008c.06 1.987.418 3.956 1.048 5.846a12.676 12.676 0 0 0 3.737 5.888 21.21 21.21 0 0 0 7.754 4.488c3.277 1.121 7.48 1.775 12.805 1.775 5.228 0 9.529-.557 12.806-1.775.703-.26 1.38-.539 2.023-.83a20.102 20.102 0 0 0 5.724-3.634 13.44 13.44 0 0 0 3.744-5.888 20.68 20.68 0 0 0 1.024-5.882V18.027c-.025-5.137-2.084-9.437-6.1-12.89ZM25.4 68.959c-4.846 0-8.226-1.024-9.995-2.805-1.769-1.78-2.72-4.67-2.72-8.414a9.235 9.235 0 0 1 1.127-4.67 11.805 11.805 0 0 1 2.423-3.077 18.255 18.255 0 0 1 3.453-2.06c1.502-.57 3.277-1.127 5.052-1.775a78.248 78.248 0 0 0 4.846-1.684 149.64 149.64 0 0 0 3.961-1.357l.897-.327a9.943 9.943 0 0 0 2.241-1.12 3.487 3.487 0 0 0 1.502-2.242l.091 18.409c0 3.556-.939 6.263-2.72 8.226a9.315 9.315 0 0 1-4.5 2.302 24.327 24.327 0 0 1-5.658.594Z" />
</svg>