<svg xmlns="http://www.w3.org/2000/svg" width="250" height="250" fill="none">
    <path fill="#2BDEFD"
        d="m82.48 205.001-.607-1.48.584-.139.596 1.458-.573.161Zm-2.086 1.188.153-.272c.181-.323.384-.59.609-.801a2.14 2.14 0 0 1 .715-.457c.253-.094.512-.129.778-.104.264.024.527.11.789.257.254.143.461.321.62.535.158.213.265.453.32.72.052.265.05.55-.01.854a3.17 3.17 0 0 1-.36.94l-.153.272a3.21 3.21 0 0 1-.611.796c-.229.208-.47.359-.725.452a1.754 1.754 0 0 1-.779.107 1.953 1.953 0 0 1-.78-.252 1.989 1.989 0 0 1-.632-.542 1.717 1.717 0 0 1-.315-.721 2.143 2.143 0 0 1 .019-.849c.06-.3.18-.612.362-.935Zm.717.045-.156.278a2.995 2.995 0 0 0-.302.724c-.06.226-.077.434-.051.625.025.19.09.36.195.51.105.15.25.276.436.381a1.16 1.16 0 0 0 1.074.066c.177-.076.35-.197.515-.363a2.9 2.9 0 0 0 .465-.633l.156-.278c.145-.258.246-.502.302-.732a1.71 1.71 0 0 0 .044-.633 1.193 1.193 0 0 0-.201-.513 1.245 1.245 0 0 0-.42-.372 1.297 1.297 0 0 0-.552-.174 1.1 1.1 0 0 0-.535.1 1.635 1.635 0 0 0-.508.372c-.163.17-.317.384-.462.642Zm-16.156-7.676-.499-.418 2.146-2.559c.238-.284.5-.467.784-.55.284-.082.572-.084.86-.003.287.081.552.223.796.428.257.215.45.456.579.724.126.268.17.547.134.838-.04.288-.178.575-.416.859l-2.145 2.558-.496-.416 2.145-2.558c.166-.198.266-.391.3-.58a.889.889 0 0 0-.064-.54 1.375 1.375 0 0 0-.379-.477 1.367 1.367 0 0 0-.535-.29.888.888 0 0 0-.546.029c-.18.067-.353.199-.519.397l-2.145 2.558Zm-11.147-11.373 4.502-1.621.427.514-4.997 1.71-.275-.331.343-.272Zm2.582-3.929-2.411 4.135-.33.287-.275-.33 2.586-4.608.43.516Zm-1.35 1.233.411-.342 1.773 2.131-.411.343-1.774-2.132Zm-8.268-13.904.461-.265 1.23 2.139-.461.265-1.23-2.139Zm-2.651 4.222 4.278-2.46.326.568-4.278 2.459-.326-.567Zm-6.991-13.835 4.589-1.817.24.608-4.588 1.817-.24-.608Zm.782-13.115.23 1.004-.52.112-.229-.997c-.079-.344-.216-.614-.412-.81a1.375 1.375 0 0 0-.726-.376 2.315 2.315 0 0 0-.959.036l-.294.067a2.577 2.577 0 0 0-.71.268c-.201.115-.36.254-.479.416-.12.162-.198.344-.232.547-.036.2-.026.42.029.657l.249 1.084-.522.12-.25-1.084a2.325 2.325 0 0 1-.039-.898c.044-.284.144-.542.3-.775.152-.234.356-.434.613-.6.254-.165.555-.287.903-.367l.288-.066c.347-.08.673-.101.976-.064a1.98 1.98 0 0 1 1.422.859c.164.243.285.532.362.867Zm-4.658 1.768 4.81-1.104.147.637-4.81 1.104-.147-.637Zm-2.537-17.916 4.57 1.423.03.667-5.017-1.65-.02-.43.437-.01Zm4.43-1.577-4.417 1.844-.437.031-.02-.43 4.842-2.116.032.671Zm-1.821.169.535-.025.129 2.77-.535.025-.13-2.77Zm2.12-14.397-.136 1.022-.527-.077.136-1.015c.046-.349.012-.65-.102-.903a1.375 1.375 0 0 0-.549-.606 2.312 2.312 0 0 0-.91-.303l-.3-.04a2.565 2.565 0 0 0-.758.002 1.522 1.522 0 0 0-.594.222c-.17.109-.306.253-.41.431-.103.175-.17.384-.203.626l-.147 1.102-.53-.071.146-1.102c.043-.32.136-.606.278-.856.14-.25.325-.457.552-.62.224-.166.486-.282.784-.347a2.76 2.76 0 0 1 .975-.027l.292.038c.354.048.667.142.937.283a1.964 1.964 0 0 1 1.03 1.303c.07.285.082.598.036.938Zm-4.982.024 4.892.652-.086.648-4.892-.652.086-.648Zm8.06-17.658.508.16-.784 2.493-.508-.16.784-2.493Zm-4.944 1.046 4.708 1.481-.197.624-4.708-1.48.197-.625Zm2.664-1.4.508.16-.68 2.162-.508-.159.68-2.163Zm-1.93-.934.51.16-.773 2.461-.511-.16.774-2.461Zm10.76-22.345 2.84 3.852-.37.556-3.066-4.3.238-.359.358.251Zm4.504 1.351-4.652-1.128-.37-.234.239-.358 5.155 1.162-.372.558Zm-1.568-.941.446.297-1.536 2.308-.446-.297 1.536-2.308Zm10.962-11.886.386.366-1.698 1.79-.386-.366 1.698-1.79Zm-4.804-1.334 3.58 3.397-.45.474-3.58-3.397.45-.474ZM67.326 49.69l.522-.388 1.993 2.68c.22.297.339.593.353.89.015.295-.05.575-.196.838a2.13 2.13 0 0 1-.6.675 2.19 2.19 0 0 1-.839.395c-.29.06-.571.04-.845-.064-.272-.105-.52-.306-.74-.603l-1.993-2.68.52-.385 1.992 2.679c.154.207.319.349.495.426a.89.89 0 0 0 .54.063 1.38 1.38 0 0 0 .552-.258c.183-.136.319-.288.406-.454a.887.887 0 0 0 .098-.538c-.023-.19-.112-.39-.266-.596l-1.992-2.68Zm11.815-7.806 1.464-.726c.332-.164.637-.252.916-.265.281-.013.53.05.748.19.22.135.4.347.542.635.1.202.151.408.152.617a1.32 1.32 0 0 1-.142.6c-.094.19-.234.367-.418.53l-.133.144-1.376.682-.242-.473 1.039-.515c.21-.105.367-.228.47-.37a.858.858 0 0 0 .168-.458.929.929 0 0 0-.1-.468 1.06 1.06 0 0 0-.322-.397.747.747 0 0 0-.462-.138c-.177 0-.378.055-.602.166l-.878.436 1.955 3.941-.587.29-2.192-4.42Zm4.777 3.14-2.07-1.47.61-.306 2.067 1.43.018.036-.625.31ZM96.555 34.97l-.321 4.774-.641.186.437-5.264.413-.12.112.424Zm2.564 3.94-2.821-3.866-.131-.417.413-.12 3.184 4.217-.645.187Zm-.588-1.731.148.514-2.663.77-.15-.514 2.665-.77Zm32.933-4.249.769-.864-.989-.403.208-.49.982.473.084-1.163.512.05-.149 1.177 1.042-.276.105.532-1.066.205.575.98-.449.272-.529-1.032-.703.888-.392-.348Zm33.634 11.006.65 1.462-.58.156-.637-1.44.567-.178Zm2.052-1.247-.145.276a3.3 3.3 0 0 1-.586.818 2.15 2.15 0 0 1-.702.478c-.25.101-.508.143-.775.126a1.964 1.964 0 0 1-.795-.234 1.94 1.94 0 0 1-.636-.517 1.81 1.81 0 0 1-.34-.71 2.214 2.214 0 0 1-.015-.855c.051-.305.162-.621.334-.95l.145-.276c.172-.328.368-.6.587-.813.223-.215.46-.373.712-.473a1.76 1.76 0 0 1 .775-.129c.267.017.529.094.787.23.267.139.483.314.648.523.166.21.278.447.335.712.059.262.061.545.006.849a3.196 3.196 0 0 1-.335.945Zm-.718-.024.148-.282c.136-.26.23-.505.281-.733.053-.228.064-.436.033-.626-.03-.19-.1-.358-.21-.504a1.291 1.291 0 0 0-.446-.368 1.25 1.25 0 0 0-.541-.15 1.174 1.174 0 0 0-.535.113 1.67 1.67 0 0 0-.504.379c-.161.17-.31.386-.447.646l-.148.282a2.97 2.97 0 0 0-.281.74c-.049.23-.058.441-.026.634a1.2 1.2 0 0 0 .216.507c.109.147.253.267.431.36.188.1.374.152.557.159.182.006.36-.032.531-.116.174-.085.34-.213.497-.386a3.19 3.19 0 0 0 .444-.655Zm16.363 7.207.51.404-2.071 2.618c-.229.291-.485.482-.768.573-.282.09-.569.1-.86.028a2.128 2.128 0 0 1-.808-.405 2.192 2.192 0 0 1-.599-.707 1.482 1.482 0 0 1-.157-.834c.03-.29.16-.58.39-.87l2.071-2.62.508.402-2.071 2.619c-.16.202-.254.398-.284.588a.896.896 0 0 0 .08.538c.084.17.215.326.392.466.179.142.361.233.544.275a.886.886 0 0 0 .545-.045c.178-.072.347-.21.507-.411l2.071-2.619Zm11.465 11.047-4.455 1.749-.441-.5 4.946-1.854.284.323-.334.282Zm-2.468 4.002 2.291-4.203.321-.297.285.323-2.454 4.68-.443-.503Zm1.314-1.272-.402.354-1.834-2.08.402-.354 1.834 2.08Zm8.674 13.665-.454.278-1.291-2.103.454-.279 1.291 2.104Zm2.529-4.297-4.206 2.582-.342-.558 4.206-2.581.342.557Zm7.376 13.625-4.534 1.949-.258-.601 4.534-1.949.258.601Zm-.402 13.135-.259-.998.516-.127.258.99c.089.342.234.608.435.798.203.19.449.308.736.355.291.048.61.027.958-.063l.292-.076c.273-.071.507-.167.702-.288.198-.121.353-.264.467-.429.115-.165.188-.35.216-.554a1.63 1.63 0 0 0-.048-.656l-.279-1.076.518-.135.28 1.076c.081.313.103.612.065.897a1.9 1.9 0 0 1-.277.783 2.008 2.008 0 0 1-.596.617 2.757 2.757 0 0 1-.892.393l-.285.075c-.346.089-.671.12-.975.092a1.962 1.962 0 0 1-1.445-.819 2.524 2.524 0 0 1-.387-.855Zm4.605-1.901-4.777 1.241-.164-.633 4.776-1.241.165.633Zm3.033 17.832-4.608-1.291-.05-.666 5.063 1.505.032.43-.437.022Zm-4.382 1.704 4.362-1.971.435-.043.033.43-4.78 2.253-.05-.669Zm1.815-.222-.534.04-.208-2.764.534-.041.208 2.765Zm-1.697 14.456.107-1.025.529.062-.106 1.018c-.037.35.006.65.127.899.124.249.313.446.566.591.255.147.561.239.918.276l.301.031c.28.03.533.022.758-.023.228-.044.424-.124.588-.238.166-.115.298-.262.397-.443a1.65 1.65 0 0 0 .185-.632l.115-1.105.533.055-.115 1.106a2.33 2.33 0 0 1-.254.863 1.902 1.902 0 0 1-.533.636 2.02 2.02 0 0 1-.775.369 2.786 2.786 0 0 1-.973.056l-.294-.031a2.817 2.817 0 0 1-.944-.255 1.963 1.963 0 0 1-1.067-1.273 2.538 2.538 0 0 1-.063-.937Zm4.98-.166-4.909-.512.068-.651 4.908.512-.067.651Zm-7.556 17.882-.512-.145.712-2.514.512.145-.712 2.514Zm4.912-1.187-4.748-1.345.178-.629 4.749 1.345-.179.629Zm-2.623 1.476-.512-.145.618-2.182.512.145-.618 2.182Zm1.956.879-.515-.146.703-2.482.515.146-.703 2.482Zm-10.111 22.645-2.949-3.768.354-.567 3.188 4.211-.228.365-.365-.241Zm-4.54-1.221 4.682.994.376.223-.228.365-5.186-1.013.356-.569Zm1.594.896-.454-.284 1.469-2.351.454.283-1.469 2.352Zm-10.621 12.194-.396-.355 1.646-1.838.397.355-1.647 1.838Zm4.84 1.196-3.675-3.293.436-.488 3.676 3.294-.437.487Zm-12.796 12.508-.511.403-2.068-2.621c-.229-.291-.356-.584-.379-.88a1.541 1.541 0 0 1 .172-.843c.137-.264.331-.495.581-.692a2.19 2.19 0 0 1 .827-.419 1.49 1.49 0 0 1 .847.039c.275.097.527.291.757.582l2.068 2.621-.508.401-2.068-2.621c-.16-.202-.329-.34-.507-.412a.887.887 0 0 0-.542-.047 1.365 1.365 0 0 0-.544.274c-.179.141-.31.296-.393.465a.889.889 0 0 0-.083.54c.029.191.123.387.283.589l2.068 2.621Zm-11.59 8.135-1.442.768c-.327.174-.63.271-.909.291a1.247 1.247 0 0 1-.753-.167c-.223-.13-.409-.337-.56-.62a1.379 1.379 0 0 1-.169-.613 1.327 1.327 0 0 1 .124-.604c.089-.193.224-.373.404-.54l.128-.149 1.355-.722.256.467-1.023.545c-.208.11-.361.238-.46.383a.853.853 0 0 0-.154.462.932.932 0 0 0 .113.465c.09.168.2.297.333.388.133.09.288.132.466.124.177-.004.376-.065.597-.183l.865-.46-2.067-3.884.578-.308 2.318 4.357Zm-4.865-3.002 2.11 1.412-.599.323-2.108-1.371-.019-.036.616-.328Zm-12.351 10.411.184-4.782.636-.204-.287 5.274-.41.132-.123-.42Zm-2.676-3.866 2.931 3.784.143.414-.41.131-3.303-4.124.639-.205Zm.638 1.714-.164-.51 2.641-.846.163.511-2.64.845Zm-32.794 5.192-.744.886 1 .375-.194.496-.995-.446-.05 1.166-.514-.036.116-1.181-1.034.306-.12-.528 1.06-.236-.603-.963.441-.285.558 1.017.678-.908.401.337Z" />
</svg>