<svg xmlns="http://www.w3.org/2000/svg" viewBox="0 0 21 21" fill="#6bd1ff">
    <path
        d="M9.843 1.992a.996.996 0 0 0 0-1.992h-8.67C.882 0 .563.066.38.263.184.445 0 .648 0 .938v8.67a.996.996 0 0 0 1.992 0V1.993h7.85zm9.606 7.847a.995.995 0 0 0-.996.997v7.851h-7.617a.996.996 0 1 0 0 1.992h8.67c.29 0 .492-.183.675-.38.197-.182.263-.5.263-.79v-8.673a.996.996 0 0 0-.997-.997h.002zM9.285 14.44a.88.88 0 0 0 1.757 0v-2.446l2.28 1.282a.98.98 0 0 0 .468.118.903.903 0 0 0 .777-.44.876.876 0 0 0-.314-1.2l-2.175-1.26 2.183-1.26a.878.878 0 0 0 .321-1.201c-.241-.42-.838-.564-1.258-.321l-2.28 1.282V6.473a.88.88 0 0 0-1.758 0V8.95l-2.08-1.236a.847.847 0 0 0-1.173.321.886.886 0 0 0 .338 1.201l2.187 1.26-2.176 1.259a.88.88 0 0 0 .443 1.639c.148 0 .24-.038.38-.119l2.08-1.235v2.4z" />
</svg>