<svg xmlns="http://www.w3.org/2000/svg" viewBox="0 0 45 45" fill="#ff8c2a">
    <path
        d="M15.612 38.715h13.776a1.647 1.717 0 1 0 0-3.433H15.612a1.647 1.717 0 0 0 0 3.433zm8.535-1.717V13.66a1.647 1.717 0 0 0-3.294 0v23.337a1.647 1.717 0 0 0 3.294 0zm6.963-23.261h-1.722a8.535 8.899 0 0 0-8.535 8.899v3.59c0 .949.737 1.718 1.647 1.718h1.722a8.535 8.899 0 0 0 8.535-8.899v-3.59a1.647 1.717 0 0 0-1.647-1.718zm-1.646 5.308a5.24 5.464 0 0 1-5.242 5.464h-.075v-1.873a5.24 5.464 0 0 1 5.241-5.464h.076v1.873zm-15.5 15.486v7.853c0 .949.738 1.717 1.648 1.717h13.776a1.647 1.717 0 0 0 1.647-1.717V34.53a17.12 17.85 0 0 0 8.61-15.486C39.646 9.173 31.97 1.17 22.5 1.17S5.354 9.173 5.354 19.045a17.12 17.85 0 0 0 8.61 15.486zm3.295 6.137v-7.164a1.647 1.717 0 0 0-.913-1.537 13.836 14.425 0 0 1-7.699-12.922 13.853 14.442 0 1 1 27.706 0 13.836 14.425 0 0 1-7.699 12.922 1.647 1.717 0 0 0-.913 1.537v7.164H17.259z" />
</svg>