<svg xmlns="http://www.w3.org/2000/svg" viewBox="0 0 22 21" fill="#9cd33b">
    <path xmlns="http://www.w3.org/2000/svg"
        d="m3.84 0.523c-0.96-0.038-1.9 0.205-2.53 0.887-0.631 0.68-0.805 1.63-0.701 2.59 0.105 0.97 0.471 2 1.03 3.12 0.52 1.02 1.23  2.1 2.06 3.18-0.84 1.1-1.54 2.2-2.06 3.2-0.56 1.1-0.928 2.2-1.03 3.1-0.107 1 0.065 2 0.7 2.6 0.63 0.7 1.56 1 2.53 0.9 0.97 0 2.02-0.3 3.17-0.8 1.2-0.5 2.49-1.3 3.79-2.2 1.3 0.9 2.6 1.7 3.8 2.2s2.2 0.8 3.2 0.8c1 0.1 1.9-0.2 2.5-0.9 0.7-0.6 0.8-1.6 0.7-2.6-0.1-0.9-0.4-2-1-3.1-0.5-1-1.2-2.1-2.1-3.2 0.9-1.08 1.6-2.16 2.1-3.18 0.6-1.12 0.9-2.15 1-3.12 0.1-0.96 0-1.91-0.7-2.59-0.6-0.682-1.5-0.925-2.5-0.887-1 0.039-2 0.332-3.2 0.817-1.2 0.51-2.5 1.26-3.8 2.18-1.3-0.92-2.59-1.67-3.79-2.18-1.15-0.485-2.21-0.778-3.17-0.817zm-0.07 1.7c0.66 0.03 1.56 0.25 2.57 0.69 0.93 0.39 1.96 0.97 3.04 1.69-0.73 0.57-1.45 1.17-2.16 1.84-0.88 0.83-1.67 1.68-2.4 2.52-0.67-0.91-1.25-1.8-1.66-2.61-0.5-0.99-0.79-1.87-0.86-2.53s0.05-1.04 0.26-1.26c0.2-0.21 0.56-0.36 1.21-0.34zm14.1 0c0.6-0.02 1 0.13 1.2 0.34 0.2 0.22 0.3 0.6 0.2 1.26 0 0.66-0.3 1.54-0.8 2.53-0.4 0.81-1 1.7-1.7 2.61-0.7-0.84-1.5-1.69-2.4-2.52-0.7-0.67-1.4-1.27-2.1-1.84 1-0.72 2.1-1.3 3-1.69 1-0.44 1.9-0.66 2.6-0.69zm-7.1 3.42c0.8 0.62 1.7 1.28 2.5 2.04 0.9 0.87 1.7 1.76 2.4 2.62-0.7 0.9-1.5 1.8-2.4 2.7-0.8 0.7-1.7 1.4-2.5 2-0.8-0.6-1.61-1.3-2.42-2h-0.01c-0.92-0.9-1.73-1.8-2.47-2.7 0.74-0.86 1.55-1.75 2.48-2.62 0.81-0.76 1.62-1.42 2.42-2.04zm-1.47 2.86a0.46 0.46 0 0 0 -0.46 0.46v1.14h3.93v-0.1-1.09 0.02a0.46 0.46 0 0 0 -0.5 -0.43h-2.97zm-0.41 2v0.1h-0.05 0.05v1a0.46 0.46 0 0 0 0.46 0.5h3.02a0.46 0.46 0 0 0 0.4 -0.5v-1.1h-3.88zm-4.1 1.2c0.73 0.8 1.52 1.7 2.4 2.5a0.85 0.85 0 0 0 0.09 0.1c0.68 0.6 1.38 1.2 2.07 1.7-1.07 0.8-2.11 1.3-3.04 1.7-1.01 0.5-1.91 0.7-2.57 0.7s-1.01-0.1-1.22-0.3c-0.2-0.2-0.32-0.6-0.25-1.3 0.07-0.6 0.36-1.5 0.86-2.5 0.41-0.8 0.99-1.7 1.66-2.6zm12 0c0.7 0.9 1.3 1.8 1.7 2.6 0.5 1 0.8 1.9 0.8 2.5 0.1 0.7 0 1.1-0.2 1.3s-0.6 0.3-1.2 0.3c-0.7 0-1.6-0.2-2.6-0.7-0.9-0.4-2-0.9-3-1.7 0.7-0.5 1.3-1.1 2-1.7a0.85 0.85 0 0 0 0.1 -0.1c0.9-0.8 1.7-1.7 2.4-2.5z" />
</svg>