<svg xmlns="http://www.w3.org/2000/svg" viewBox="0 0 24 22" fill="#ffba05">
    <path
        d="M16.951 20.014H7.048c-.272 0-.468-.206-.468-.514v-3.728h10.84V19.5c0 .308-.197.514-.469.514zM7.048 1.99h9.903c.272 0 .468.196.468.443V14.2H6.58V2.433c0-.247.197-.443.469-.443zm12.452.472C19.5 1.102 18.348 0 16.927 0H7.073C5.653 0 4.5 1.102 4.5 2.462v17.076C4.5 20.898 5.652 22 7.073 22h9.854a2.64 2.64 0 0 0 1.82-.721 2.41 2.41 0 0 0 .753-1.741V2.462zm-7.338 14.45h-.124a1.18 1.18 0 0 0-1.175 1.185 1.18 1.18 0 0 0 1.175 1.183h.124c.65 0 1.175-.53 1.175-1.183a1.18 1.18 0 0 0-1.175-1.184z" />
</svg>