<svg xmlns="http://www.w3.org/2000/svg" viewBox="0 0 24 19" fill="#dc6ebe">
    <path
        d="M23.783 8.582c-.047-.086-1.146-2.111-3.123-4.155C17.984 1.662 14.97.2 11.943.2S5.902 1.662 3.226 4.427C1.248 6.47.15 8.496.103 8.582a.865.865 0 0 0-.087.572.864.864 0 0 0 .087.573c.047.085 1.145 2.11 3.123 4.154 2.676 2.765 5.69 4.227 8.717 4.227 3.026 0 6.04-1.462 8.717-4.227 1.976-2.044 3.076-4.07 3.122-4.154a.87.87 0 0 0 .087-.573.865.865 0 0 0-.087-.574v.002zm-11.84 7.787c-5.552 0-9.39-5.918-10.166-7.216.773-1.3 4.598-7.215 10.165-7.215 5.552 0 9.39 5.916 10.164 7.215-.775 1.3-4.612 7.216-10.164 7.216zm1.36-7.288c0-.416.338-.868.757-.868h1.842c-.362-1.737-1.999-3.183-3.966-3.183-2.232 0-4.041 1.85-4.041 4.082 0 2.232 1.81 4.094 4.04 4.094 1.981 0 3.628-1.517 3.973-3.255H14.06c-.418 0-.755-.452-.755-.869l-.001-.001z" />
</svg>