<svg xmlns="http://www.w3.org/2000/svg" viewBox="0 0 23 23" fill="#f16165">
    <path
        d="M11.19 18.67c-4.108 0-7.447-3.343-7.447-7.45 0-4.108 3.34-7.45 7.447-7.45 4.108 0 7.45 3.343 7.45 7.45 0 4.108-3.342 7.45-7.448 7.45h-.002zm10.934-9.018l-1.847-.343a9.231 9.231 0 0 0-1.308-3.178l1.093-1.573a.298.298 0 0 0 .004-.422l-1.793-1.795a.298.298 0 0 0-.42 0l-1.574 1.085a9.26 9.26 0 0 0-3.177-1.32L12.759.263C12.759.1 12.625 0 12.46 0H9.92c-.164 0-.298.1-.298.264L9.28 2.122a9.24 9.24 0 0 0-3.179 1.313L4.528 2.346a.298.298 0 0 0-.422-.003L2.311 4.138a.298.298 0 0 0 0 .42l1.086 1.573a9.258 9.258 0 0 0-1.32 3.178L.25 9.653c-.164 0-.25.134-.25.298v2.539c0 .164.086.298.25.298l1.85.343a9.237 9.237 0 0 0 1.31 3.178l-1.092 1.573a.298.298 0 0 0-.005.422l1.794 1.797a.298.298 0 0 0 .421 0l1.573-1.087a9.243 9.243 0 0 0 3.178 1.32l.343 1.805c0 .164.134.227.298.227h2.54c.164 0 .298-.063.298-.227l.343-1.84a9.227 9.227 0 0 0 3.178-1.303l1.573 1.096a.298.298 0 0 0 .422.003l1.795-1.793a.298.298 0 0 0 0-.421l-1.084-1.574a9.258 9.258 0 0 0 1.321-3.177l1.82-.344c.164 0 .24-.135.24-.299V9.95c0-.164-.076-.299-.24-.299l-.002.001zM11.19 7.842a3.382 3.382 0 0 0-3.377 3.378 3.382 3.382 0 0 0 3.377 3.377 3.38 3.38 0 0 0 3.377-3.377 3.38 3.38 0 0 0-3.377-3.377zm0 4.891a1.513 1.513 0 1 1 0-3.026 1.513 1.513 0 0 1 0 3.026z" />
</svg>