<svg xmlns="http://www.w3.org/2000/svg" viewBox="0 0 17 20" fill="#00c86f">
    <path
        d="M9.166 9.524L5.703 6.062a1.039 1.039 0 1 0-1.47 1.47l2.823 2.822-2.822 2.822a1.04 1.04 0 0 0 1.47 1.47l3.462-3.461c.227-.228.327-.533.3-.83a1.037 1.037 0 0 0-.3-.829v-.002zm6.484 3.6h-5.03a1.039 1.039 0 0 0 0 2.078h5.03a1.04 1.04 0 1 0 0-2.08v.002zm.055 4.265H2.269c-.178 0-.3-.142-.3-.32V2.336c0-.179.122-.367.3-.367h13.437a.984.984 0 1 0 0-1.969H2.27C1.003 0 0 1.069 0 2.336v14.733a2.269 2.269 0 0 0 2.269 2.288h13.437a.984.984 0 1 0 0-1.968h-.001z" />
</svg>